<svg width="17" height="15" viewBox="0 0 17 15" fill="none" xmlns="http://www.w3.org/2000/svg">
<path d="M7.26648 0.552932C7.34952 0.386788 7.47719 0.247054 7.63518 0.149392C7.79317 0.0517301 7.97524 0 8.16098 0C8.34672 0 8.52879 0.0517301 8.68678 0.149392C8.84477 0.247054 8.97244 0.386788 9.05548 0.552932L10.7695 3.98593C10.8436 4.13421 10.9534 4.26174 11.089 4.35705C11.2247 4.45236 11.3819 4.51245 11.5465 4.53193L15.4385 4.99193C15.6302 5.01462 15.8113 5.09234 15.9598 5.21569C16.1084 5.33904 16.218 5.50276 16.2756 5.68707C16.3331 5.87138 16.336 6.06841 16.284 6.25435C16.232 6.44029 16.1273 6.60721 15.9825 6.73493L13.2045 9.18593C13.0728 9.30223 12.974 9.45119 12.9182 9.61779C12.8624 9.78439 12.8514 9.96276 12.8865 10.1349L13.6145 13.7119C13.652 13.8968 13.6365 14.0886 13.5697 14.2651C13.5029 14.4415 13.3876 14.5955 13.237 14.7092C13.0864 14.8228 12.9067 14.8916 12.7187 14.9075C12.5307 14.9234 12.342 14.8857 12.1745 14.7989L8.62148 12.9619C8.47933 12.8883 8.32158 12.8499 8.16148 12.8499C8.00139 12.8499 7.84363 12.8883 7.70148 12.9619L4.14648 14.7999C3.97895 14.8867 3.79028 14.9244 3.60227 14.9085C3.41426 14.8926 3.23458 14.8238 3.08398 14.7102C2.93339 14.5965 2.81803 14.4425 2.75123 14.2661C2.68443 14.0896 2.66892 13.8978 2.70648 13.7129L3.43448 10.1359C3.46952 9.96376 3.45858 9.78539 3.40275 9.61879C3.34692 9.45218 3.24819 9.30323 3.11648 9.18693L0.338482 6.73593C0.193686 6.60821 0.0889622 6.44129 0.0369568 6.25535C-0.0150486 6.06941 -0.0121117 5.87238 0.0454129 5.68807C0.102938 5.50376 0.21259 5.34004 0.361128 5.21669C0.509667 5.09334 0.69074 5.01562 0.882482 4.99293L4.77448 4.53293C4.9391 4.51345 5.0963 4.45336 5.23193 4.35805C5.36756 4.26274 5.47737 4.13521 5.55148 3.98693L7.26648 0.552932Z" fill="#F5B423"/>
</svg>
